<svg width="75" height="75" viewBox="0 0 75 75" fill="none" xmlns="http://www.w3.org/2000/svg">
<path fill-rule="evenodd" clip-rule="evenodd" d="M28.125 23.4375V35.125C24.3438 32.5938 21.875 28.3125 21.875 23.4375C21.875 15.6562 28.1562 9.375 35.9375 9.375C43.7188 9.375 50 15.6562 50 23.4375C50 28.3125 47.5312 32.5938 43.75 35.125V23.4375C43.75 19.125 40.25 15.625 35.9375 15.625C31.625 15.625 28.125 19.125 28.125 23.4375ZM44.6875 42.5312L58.875 49.5938C60.5312 50.2812 61.7188 51.9688 61.7188 53.9062C61.7188 54.0938 61.6875 54.3125 61.6562 54.5312L59.3125 71C58.9688 73.2812 57.1562 75 54.8125 75H33.5938C32.3125 75 31.125 74.4688 30.2812 73.625L14.8438 58.1875L17.3125 55.6875C17.9375 55.0625 18.8125 54.6562 19.7812 54.6562C19.9688 54.6562 20.1285 54.684 20.2882 54.7118C20.3681 54.7257 20.4479 54.7396 20.5312 54.75L31.25 57V23.4375C31.25 20.8438 33.3438 18.75 35.9375 18.75C38.5312 18.75 40.625 20.8438 40.625 23.4375V42.1875H43C43.5938 42.1875 44.1562 42.3125 44.6875 42.5312Z" fill="white"/>
</svg>
